<svg width="14" height="14" viewBox="0 0 14 14" fill="none" xmlns="http://www.w3.org/2000/svg">
<path d="M13.2096 5.24377L9.354 4.66073L7.63045 1.02503C7.58337 0.925486 7.50592 0.844904 7.41026 0.795922C7.17032 0.672678 6.87876 0.775381 6.7588 1.02503L5.03524 4.66073L1.17964 5.24377C1.07334 5.25957 0.976155 5.31171 0.901746 5.39072C0.81179 5.48692 0.76222 5.61635 0.763928 5.75056C0.765637 5.88477 0.818484 6.01279 0.910857 6.10648L3.70044 8.93636L3.04138 12.9323C3.02593 13.0253 3.03582 13.1209 3.06992 13.2083C3.10403 13.2957 3.16099 13.3714 3.23434 13.4268C3.3077 13.4823 3.39452 13.5152 3.48495 13.5219C3.57539 13.5286 3.66582 13.5088 3.74599 13.4648L7.19462 11.5782L10.6433 13.4648C10.7374 13.5169 10.8467 13.5343 10.9515 13.5153C11.2157 13.4679 11.3934 13.2072 11.3479 12.9323L10.6888 8.93636L13.4784 6.10648C13.5543 6.02906 13.6044 5.92793 13.6196 5.81733C13.6606 5.54082 13.4753 5.28485 13.2096 5.24377V5.24377Z" fill="#FFB742"/>
</svg>
